<svg xmlns="http://www.w3.org/2000/svg" width="132" height="43.14"><path d="M47.75 41l-.78-2h-2.5l-.77 2H43l2.47-6.28H46L48.5 41zm-1-2.64l-.75-1.9a8 8 0 0 1-.29-.9q-.1.4-.27.9l-.74 1.94zM52.37 41v-3a1.21 1.21 0 0 0-.26-.86 1.07 1.07 0 0 0-.81-.28 1.34 1.34 0 0 0-1.08.4 2 2 0 0 0-.34 1.31V41h-.71v-4.65h.57l.12.65a1.42 1.42 0 0 1 .62-.54 1.92 1.92 0 0 1 .87-.19 1.8 1.8 0 0 1 1.28.41 1.74 1.74 0 0 1 .42 1.3V41zm7.86 0h-3.48v-6.21h3.48v.64h-2.76v2h2.6v.64h-2.6v2.3h2.76zm2.86.13a1.73 1.73 0 0 1-1.42-.64 3.37 3.37 0 0 1 0-3.58 1.88 1.88 0 0 1 2.9.09l.1-.65h.56v6.79h-.71v-2a4.91 4.91 0 0 1 .05-.73h-.05a1.69 1.69 0 0 1-1.43.72zm.1-.6a1.28 1.28 0 0 0 1-.38 2.07 2.07 0 0 0 .34-1.28v-.16a2.32 2.32 0 0 0-.33-1.41 1.24 1.24 0 0 0-1.06-.44 1.07 1.07 0 0 0-1 .49 2.41 2.41 0 0 0-.33 1.37 2.32 2.32 0 0 0 .33 1.35 1.09 1.09 0 0 0 1.05.46zm4.18-4.18v3a1.24 1.24 0 0 0 .26.86 1.06 1.06 0 0 0 .82.28 1.3 1.3 0 0 0 1.07-.4 2 2 0 0 0 .34-1.31v-2.43h.71V41H70l-.11-.63a1.35 1.35 0 0 1-.6.53 2.07 2.07 0 0 1-.88.19 1.79 1.79 0 0 1-1.28-.41 1.7 1.7 0 0 1-.43-1.3v-3.03zm4.56-1.27a.45.45 0 0 1 .12-.35.41.41 0 0 1 .3-.12.4.4 0 0 1 .29.12.43.43 0 0 1 .13.35.45.45 0 0 1-.13.36.4.4 0 0 1-.29.12.41.41 0 0 1-.3-.12.49.49 0 0 1-.12-.36zm.77 6H72v-4.73h.71zm3.53-4.17H75V41h-.71v-4.09h-.84v-.32l.84-.26v-.26c0-1.15.5-1.73 1.51-1.73a3.17 3.17 0 0 1 .87.15l-.19.57a2.23 2.23 0 0 0-.7-.13.69.69 0 0 0-.59.26 1.5 1.5 0 0 0-.19.86v.3h1.19zM79.88 41l-.14-.67a1.8 1.8 0 0 1-.7.6 2.18 2.18 0 0 1-.87.16 1.56 1.56 0 0 1-1.17-.32 1.33 1.33 0 0 1-.39-1c0-.94.75-1.44 2.27-1.48h.79V38a1.15 1.15 0 0 0-.24-.81.94.94 0 0 0-.75-.27 3.06 3.06 0 0 0-1.33.36l-.22-.54a3.65 3.65 0 0 1 .76-.3 3.37 3.37 0 0 1 .83-.1 1.77 1.77 0 0 1 1.24.37 1.56 1.56 0 0 1 .4 1.19V41zm-1.61-.5a1.47 1.47 0 0 0 1-.36 1.36 1.36 0 0 0 .37-1v-.42h-.7a2.56 2.56 0 0 0-1.23.26.78.78 0 0 0-.37.72.75.75 0 0 0 .23.59 1 1 0 0 0 .7.25zm4.64-1.86l-1.63-2.29h.81l1.23 1.8 1.23-1.8h.8l-1.63 2.29L85.44 41h-.8l-1.32-1.9L82 41h-.81zm8.34-3.29a2 2 0 0 0-1.63.69 2.78 2.78 0 0 0-.62 1.87 2.84 2.84 0 0 0 .57 1.9 2 2 0 0 0 1.64.67 5.76 5.76 0 0 0 1.49-.23v.63a4.59 4.59 0 0 1-1.6.25 2.71 2.71 0 0 1-2.1-.84 3.45 3.45 0 0 1-.75-2.38 3.8 3.8 0 0 1 .36-1.7 2.68 2.68 0 0 1 1-1.12 3.2 3.2 0 0 1 1.61-.39 3.89 3.89 0 0 1 1.72.36l-.31.62a3.34 3.34 0 0 0-1.38-.33zm6.57 3.34a2.6 2.6 0 0 1-.58 1.79 2 2 0 0 1-1.6.65 2.07 2.07 0 0 1-1.11-.3 1.89 1.89 0 0 1-.75-.85 2.86 2.86 0 0 1-.27-1.29 2.57 2.57 0 0 1 .57-1.78 2 2 0 0 1 1.6-.64 2 2 0 0 1 1.56.65 2.62 2.62 0 0 1 .58 1.77zm-3.57 0a2.22 2.22 0 0 0 .36 1.37 1.25 1.25 0 0 0 1 .47 1.23 1.23 0 0 0 1.06-.47 2.22 2.22 0 0 0 .36-1.37 2.17 2.17 0 0 0-.36-1.35 1.28 1.28 0 0 0-1.07-.47 1.24 1.24 0 0 0-1.05.46 2.17 2.17 0 0 0-.3 1.36zM104.82 41v-3a1.28 1.28 0 0 0-.24-.84 1 1 0 0 0-.75-.28 1.22 1.22 0 0 0-1 .38 1.84 1.84 0 0 0-.31 1.17V41h-.71v-3a1.28 1.28 0 0 0-.24-.84 1 1 0 0 0-.75-.28 1.18 1.18 0 0 0-1 .4 2.21 2.21 0 0 0-.31 1.31V41h-.71v-4.65h.58l.12.65a1.35 1.35 0 0 1 .57-.54 1.67 1.67 0 0 1 .81-.19 1.38 1.38 0 0 1 1.44.79 1.59 1.59 0 0 1 .6-.58 1.94 1.94 0 0 1 .91-.21 1.59 1.59 0 0 1 1.19.41 1.82 1.82 0 0 1 .4 1.3V41zm4.26.13a2.05 2.05 0 0 1-.83-.17 1.62 1.62 0 0 1-.64-.52 7.11 7.11 0 0 1 0 .78v1.92h-.71v-6.79h.58l.1.65a1.54 1.54 0 0 1 .64-.56 2 2 0 0 1 .83-.17 1.73 1.73 0 0 1 1.44.64 2.77 2.77 0 0 1 .51 1.78 2.84 2.84 0 0 1-.52 1.8 1.75 1.75 0 0 1-1.4.64zm-.1-4.26a1.24 1.24 0 0 0-1 .4 2.1 2.1 0 0 0-.33 1.27v.15a2.37 2.37 0 0 0 .33 1.42 1.26 1.26 0 0 0 1.06.42 1.1 1.1 0 0 0 1-.49 2.34 2.34 0 0 0 .34-1.36 2.23 2.23 0 0 0-.34-1.34 1.15 1.15 0 0 0-1.04-.47zm5.95 4.13l-.14-.67a1.8 1.8 0 0 1-.7.6 2.18 2.18 0 0 1-.87.16 1.58 1.58 0 0 1-1.09-.36 1.33 1.33 0 0 1-.39-1c0-.94.75-1.44 2.27-1.48h.79v-.29a1.21 1.21 0 0 0-.23-.81 1 1 0 0 0-.76-.27 3.09 3.09 0 0 0-1.33.36l-.22-.54a3.65 3.65 0 0 1 .76-.3 3.37 3.37 0 0 1 .83-.1 1.77 1.77 0 0 1 1.24.37 1.56 1.56 0 0 1 .41 1.19V41zm-1.6-.5a1.46 1.46 0 0 0 1-.36 1.37 1.37 0 0 0 .38-1v-.42H114a2.56 2.56 0 0 0-1.23.26.8.8 0 0 0-.37.72.75.75 0 0 0 .23.59 1 1 0 0 0 .7.25zm6.67.5v-3a1.26 1.26 0 0 0-.26-.86 1.11 1.11 0 0 0-.82-.28 1.34 1.34 0 0 0-1.08.4 2 2 0 0 0-.34 1.31V41h-.71v-4.65h.58l.11.65a1.4 1.4 0 0 1 .61-.54 1.93 1.93 0 0 1 .88-.19 1.79 1.79 0 0 1 1.27.41 1.74 1.74 0 0 1 .43 1.3V41zm1.37-4.65h.76l1 2.68a9 9 0 0 1 .42 1.32q.06-.23.24-.75c.12-.35.5-1.43 1.16-3.25h.76l-2 5.34a2.6 2.6 0 0 1-.69 1.12 1.52 1.52 0 0 1-1 .33 2.79 2.79 0 0 1-.64-.07v-.57a2.22 2.22 0 0 0 .53 0 1.08 1.08 0 0 0 1-.82l.26-.66z" fill="#333e48"/><path d="M20.93 2.19L14.47.09a2.45 2.45 0 0 0-2.55.83L.4 16.77a2.47 2.47 0 0 0 0 2.69l11.52 15.85a2.43 2.43 0 0 0 2.55.83l6.31-2-11.51-15.9z" fill="#0096aa"/><path d="M34.68 27.91V8.32a2.44 2.44 0 0 0-1.57-2.17L24 3.18 13 18.24 23.83 33.1l9.28-3a2.46 2.46 0 0 0 1.57-2.19z" fill="#305082"/><path d="M60.84 16.15c0-3.14 2.26-5.23 7.64-5.23s7.63 2.09 7.63 5.23v9.08c0 3.14-2.25 5.23-7.63 5.23s-7.64-2.09-7.64-5.23zm11.65.3c0-1.64-1.15-2.56-4-2.56s-4 .92-4 2.56v8.47c0 1.65 1.15 2.56 4 2.56s4-.91 4-2.56zm18.17 11.84a9.11 9.11 0 0 1-6.11 2.17c-3.52 0-5.38-2-5.38-4.85V12c0-.54.19-.77.68-.77h2.22c.5 0 .72.23.72.77v12.7c0 1.6.73 2.52 2.83 2.52a8 8 0 0 0 5-1.91V12c0-.54.19-.77.69-.77h2.25c.49 0 .69.23.69.77v17.33c0 .53-.2.72-.69.72h-2.1c-.54 0-.69-.19-.72-.72zM100 11.22c.53 0 .68.23.72.73l.07 1.22a9.69 9.69 0 0 1 6.34-2.26c3.55 0 5.39 2.07 5.39 4.89v13.49c0 .53-.19.76-.69.76h-2.21c-.5 0-.73-.23-.73-.76V16.68c0-1.56-.72-2.52-2.82-2.52a8.73 8.73 0 0 0-5.2 1.95v13.18c0 .53-.19.76-.68.76H98c-.53 0-.72-.23-.72-.76V12c0-.5.19-.73.72-.73zm24.37.02c.49 0 .73.2.73.69v1.58c0 .54-.23.77-.73.77h-3.93v10.47c0 1.61 1 2.53 3.86 2.53h.7c.5 0 .72.22.72.75v1.61c0 .53-.22.72-.72.72h-1.26c-5.38 0-7-1.86-7-5.23V14.28h-2.1c-.53 0-.72-.23-.72-.77v-1.33c0-.5.19-.69.72-.73l1.89-.21h.23V7.78c0-.53.23-.76.73-.76h2.25c.5 0 .69.23.69.76v3.46zM132 9.68c0 .71-.3 1.69-2.64 1.69s-2.64-1-2.64-1.69v-2c0-.71.31-1.69 2.64-1.69s2.64 1 2.64 1.69zm-.72-2.11c0-.49-.35-1-1.92-1s-1.92.48-1.92 1v2.18c0 .49.36 1 1.92 1s1.92-.48 1.92-1zM130.19 9l.4 1c0 .09 0 .16-.15.16H130c-.1 0-.11-.06-.15-.16l-.37-.89h-.58V10c0 .1 0 .16-.14.16h-.44c-.11 0-.15-.06-.15-.16V7.32c0-.11 0-.15.15-.15h1.18c1 0 1.16.46 1.16.87v.23a.77.77 0 0 1-.48.77m-1.28-1.32v.87h.52c.29 0 .5-.14.5-.34v-.17c0-.23-.2-.36-.5-.36zM59.5 29.3c.28.35.16.76-.36.76H56a1.41 1.41 0 0 1-1.16-.76l-6.93-9.7h-1v9.69c0 .52-.2.76-.77.76h-2.47c-.52 0-.72-.24-.72-.76V6.89c0-.52.2-.76.72-.76h2.44c.57 0 .77.24.77.76v9.78h1l7.05-9.77a1.68 1.68 0 0 1 1.24-.77h2.65c.52 0 .64.37.36.77l-8 11z" fill="#2f3641"/></svg>